<svg viewBox="0 0 15 14" fill="#fff" xmlns="http://www.w3.org/2000/svg">
<mask id="path-1-outside-1_2767_2819" maskUnits="userSpaceOnUse" x="-0.157081" y="-1.09338" width="16.2635" height="16.2635" fill="#fff">
<rect fill="white" x="-0.157081" y="-1.09338" width="16.2635" height="16.2635"></rect>
<path fill-rule="evenodd" clip-rule="evenodd" d="M2.064 7.249L6.67868 11.8637L6.2038 12.3386L1.01994 7.15471L0.782499 6.91727L1.01994 6.67983L6.29804 1.40172L6.77292 1.8766L2.07211 6.57742L14.1279 6.57743L14.1279 7.24901L2.064 7.249Z"></path>
</mask>
<path fill-rule="evenodd" clip-rule="evenodd" d="M2.064 7.249L6.67868 11.8637L6.2038 12.3386L1.01994 7.15471L0.782499 6.91727L1.01994 6.67983L6.29804 1.40172L6.77292 1.8766L2.07211 6.57742L14.1279 6.57743L14.1279 7.24901L2.064 7.249Z" fill="#fff"></path>
<path d="M2.064 7.249L2.064 6.999L1.46045 6.999L1.88722 7.42578L2.064 7.249ZM6.67868 11.8637L6.85545 12.0405L7.03223 11.8637L6.85545 11.6869L6.67868 11.8637ZM6.2038 12.3386L6.02702 12.5153L6.2038 12.6921L6.38057 12.5153L6.2038 12.3386ZM0.782499 6.91727L0.605723 6.74049L0.428946 6.91727L0.605723 7.09404L0.782499 6.91727ZM6.29804 1.40172L6.47482 1.22495L6.29804 1.04817L6.12127 1.22495L6.29804 1.40172ZM6.77292 1.8766L6.9497 2.05338L7.12648 1.8766L6.9497 1.69983L6.77292 1.8766ZM2.07211 6.57742L1.89533 6.40064L1.46855 6.82742L2.07211 6.82742L2.07211 6.57742ZM14.1279 6.57743L14.3779 6.57743L14.3779 6.32743L14.1279 6.32743L14.1279 6.57743ZM14.1279 7.24901L14.1279 7.49901L14.3779 7.49901L14.3779 7.24901L14.1279 7.24901ZM1.88722 7.42578L6.5019 12.0405L6.85545 11.6869L2.24078 7.07223L1.88722 7.42578ZM6.5019 11.6869L6.02702 12.1618L6.38057 12.5153L6.85545 12.0405L6.5019 11.6869ZM6.38057 12.1618L1.19672 6.97793L0.843164 7.33148L6.02702 12.5153L6.38057 12.1618ZM1.19672 6.97793L0.959276 6.74049L0.605723 7.09404L0.843164 7.33148L1.19672 6.97793ZM0.959276 7.09404L1.19672 6.8566L0.843163 6.50305L0.605723 6.74049L0.959276 7.09404ZM1.19672 6.8566L6.47482 1.5785L6.12127 1.22495L0.843163 6.50305L1.19672 6.8566ZM6.12127 1.5785L6.59615 2.05338L6.9497 1.69983L6.47482 1.22495L6.12127 1.5785ZM6.59615 1.69983L1.89533 6.40064L2.24888 6.7542L6.9497 2.05338L6.59615 1.69983ZM2.07211 6.82742L14.1279 6.82743L14.1279 6.32743L2.07211 6.32742L2.07211 6.82742ZM13.8779 6.57743L13.8779 7.24901L14.3779 7.24901L14.3779 6.57743L13.8779 6.57743ZM14.1279 6.99901L2.064 6.999L2.064 7.499L14.1279 7.49901L14.1279 6.99901Z" fill="#fff" mask="url(#path-1-outside-1_2767_2819)"></path>
</svg>