<svg width="73" height="57" viewBox="0 0 73 57" fill="none" xmlns="http://www.w3.org/2000/svg">
<g clip-path="url(#clip0_506_220)">
<path d="M43.04 48.9518V22.8158C43.04 17.7118 44.008 13.4878 45.944 10.1438C49.64 3.45582 56.152 0.111816 65.48 0.111816H67.856L70.76 0.639824V9.87982H70.232C64.424 9.87982 61.52 12.8718 61.52 18.8558V25.9838H64.952C69.704 25.9838 72.08 28.4478 72.08 33.3758V48.9518C72.08 54.2318 69.704 56.8718 64.952 56.8718H50.168C45.416 56.8718 43.04 54.2318 43.04 48.9518ZM23.768 0.111816C24.824 0.111816 26.144 0.287819 27.728 0.639824V9.87982H27.2C21.568 9.87982 18.752 12.8718 18.752 18.8558V25.9838H21.92C26.848 25.9838 29.312 28.4478 29.312 33.3758V48.9518C29.312 54.2318 26.848 56.8718 21.92 56.8718H7.13597C2.55997 56.8718 0.271973 54.2318 0.271973 48.9518V22.8158C0.271973 7.67982 8.10397 0.111816 23.768 0.111816Z" fill="#D70F3E"/>
</g>
<defs>
<clipPath id="clip0_506_220">
<rect width="73" height="57" fill="white"/>
</clipPath>
</defs>
</svg>
